<svg xmlns="http://www.w3.org/2000/svg" width="640" height="1280" viewBox="0 0 640 1280" role="img" aria-labelledby="title">
  <title id="title">Aphidex placeholder screenshot three</title>
  <defs>
    <linearGradient id="bg" x1="0" x2="1" y1="0" y2="1">
      <stop offset="0%" stop-color="#10284D"/>
      <stop offset="100%" stop-color="#060F1C"/>
    </linearGradient>
  </defs>
  <rect width="640" height="1280" fill="url(#bg)"/>
  <rect x="36" y="54" width="568" height="1172" rx="42" fill="#0D1F3B" stroke="#28435F"/>
  <text x="84" y="132" fill="#8EB9FF" font-family="Montserrat, Arial, sans-serif" font-size="28" letter-spacing="4">OFFLINE-FIRST</text>
  <text x="84" y="192" fill="#FFFFFF" font-family="Montserrat, Arial, sans-serif" font-size="46" font-weight="700">Localized data architecture</text>
  <rect x="84" y="244" width="472" height="316" rx="28" fill="#11274A"/>
  <rect x="112" y="282" width="148" height="110" rx="20" fill="#1E5AA8"/>
  <rect x="282" y="282" width="246" height="110" rx="20" fill="#173562"/>
  <text x="302" y="334" fill="#FFFFFF" font-family="Montserrat, Arial, sans-serif" font-size="24" font-weight="700">JSON-driven creature data</text>
  <text x="302" y="370" fill="#B5C3D8" font-family="Montserrat, Arial, sans-serif" font-size="20">Expandable, structured, versionable</text>
  <rect x="112" y="430" width="416" height="94" rx="20" fill="#173562"/>
  <text x="138" y="486" fill="#FFFFFF" font-family="Montserrat, Arial, sans-serif" font-size="24" font-weight="700">Offline handbook available without APIs</text>
  <rect x="84" y="602" width="472" height="514" rx="28" fill="#11274A"/>
  <g font-family="Montserrat, Arial, sans-serif">
    <text x="110" y="670" fill="#8EB9FF" font-size="24" letter-spacing="2">LANGUAGES</text>
    <rect x="110" y="710" width="120" height="112" rx="20" fill="#173562"/>
    <rect x="260" y="710" width="120" height="112" rx="20" fill="#173562"/>
    <rect x="410" y="710" width="120" height="112" rx="20" fill="#173562"/>
    <text x="152" y="774" fill="#FFFFFF" font-size="26" font-weight="700">ES</text>
    <text x="302" y="774" fill="#FFFFFF" font-size="26" font-weight="700">EN</text>
    <text x="448" y="774" fill="#FFFFFF" font-size="26" font-weight="700">RU</text>
    <text x="110" y="900" fill="#8EB9FF" font-size="24" letter-spacing="2">RELEASE FLOW</text>
    <rect x="110" y="936" width="420" height="38" rx="19" fill="#173562"/>
    <rect x="110" y="992" width="420" height="38" rx="19" fill="#173562"/>
    <rect x="110" y="1048" width="420" height="38" rx="19" fill="#173562"/>
  </g>
</svg>
