<svg xmlns="http://www.w3.org/2000/svg" width="640" height="1280" viewBox="0 0 640 1280" role="img" aria-labelledby="title">
  <title id="title">Aphidex placeholder screenshot one</title>
  <defs>
    <linearGradient id="bg" x1="0" x2="1" y1="0" y2="1">
      <stop offset="0%" stop-color="#132B4F"/>
      <stop offset="100%" stop-color="#07111F"/>
    </linearGradient>
  </defs>
  <rect width="640" height="1280" fill="url(#bg)"/>
  <rect x="36" y="54" width="568" height="1172" rx="42" fill="#0D1F3B" stroke="#28435F"/>
  <text x="84" y="132" fill="#8EB9FF" font-family="Montserrat, Arial, sans-serif" font-size="28" letter-spacing="4">APHIDEX</text>
  <text x="84" y="192" fill="#FFFFFF" font-family="Montserrat, Arial, sans-serif" font-size="46" font-weight="700">Creature handbook</text>
  <rect x="84" y="236" width="472" height="72" rx="24" fill="#173562"/>
  <text x="116" y="281" fill="#D9E4FF" font-family="Montserrat, Arial, sans-serif" font-size="24">Search creature weaknesses</text>
  <rect x="84" y="348" width="472" height="238" rx="26" fill="#11274A"/>
  <rect x="106" y="372" width="118" height="118" rx="24" fill="#1E5AA8"/>
  <text x="248" y="410" fill="#FFFFFF" font-family="Montserrat, Arial, sans-serif" font-size="34" font-weight="700">Ladybird Larva</text>
  <text x="248" y="456" fill="#B5C3D8" font-family="Montserrat, Arial, sans-serif" font-size="22">Weak vs Fresh / Salty</text>
  <text x="248" y="494" fill="#B5C3D8" font-family="Montserrat, Arial, sans-serif" font-size="22">Resists Busting</text>
  <rect x="106" y="528" width="96" height="30" rx="15" fill="#1E5AA8"/>
  <rect x="214" y="528" width="108" height="30" rx="15" fill="#264B7E"/>
  <rect x="334" y="528" width="102" height="30" rx="15" fill="#264B7E"/>
  <rect x="84" y="626" width="472" height="198" rx="26" fill="#11274A"/>
  <text x="106" y="684" fill="#8EB9FF" font-family="Montserrat, Arial, sans-serif" font-size="24" letter-spacing="2">COMBAT NOTES</text>
  <text x="106" y="734" fill="#FFFFFF" font-family="Montserrat, Arial, sans-serif" font-size="28" font-weight="700">Fast reference before a fight</text>
  <text x="106" y="784" fill="#B5C3D8" font-family="Montserrat, Arial, sans-serif" font-size="22">Offline creature data, attacks, effects</text>
  <rect x="84" y="866" width="224" height="250" rx="26" fill="#11274A"/>
  <rect x="332" y="866" width="224" height="250" rx="26" fill="#11274A"/>
  <text x="118" y="934" fill="#FFFFFF" font-family="Montserrat, Arial, sans-serif" font-size="26" font-weight="700">Weakness</text>
  <text x="366" y="934" fill="#FFFFFF" font-family="Montserrat, Arial, sans-serif" font-size="26" font-weight="700">Effects</text>
  <circle cx="154" cy="1014" r="34" fill="#1E5AA8"/>
  <circle cx="402" cy="1014" r="34" fill="#1E5AA8"/>
</svg>
