<svg xmlns="http://www.w3.org/2000/svg" width="640" height="1280" viewBox="0 0 640 1280" role="img" aria-labelledby="title">
  <title id="title">Aphidex placeholder screenshot two</title>
  <defs>
    <linearGradient id="bg" x1="0" x2="1" y1="0" y2="1">
      <stop offset="0%" stop-color="#081523"/>
      <stop offset="100%" stop-color="#163158"/>
    </linearGradient>
  </defs>
  <rect width="640" height="1280" fill="url(#bg)"/>
  <rect x="36" y="54" width="568" height="1172" rx="42" fill="#0B182D" stroke="#28435F"/>
  <text x="84" y="132" fill="#8EB9FF" font-family="Montserrat, Arial, sans-serif" font-size="28" letter-spacing="4">FILTERS</text>
  <text x="84" y="192" fill="#FFFFFF" font-family="Montserrat, Arial, sans-serif" font-size="46" font-weight="700">Find the right counter</text>
  <rect x="84" y="238" width="472" height="208" rx="28" fill="#10284D"/>
  <rect x="110" y="270" width="120" height="34" rx="17" fill="#1E5AA8"/>
  <rect x="244" y="270" width="120" height="34" rx="17" fill="#1B355A"/>
  <rect x="378" y="270" width="120" height="34" rx="17" fill="#1B355A"/>
  <rect x="110" y="326" width="388" height="24" rx="12" fill="#49627D"/>
  <rect x="110" y="368" width="302" height="24" rx="12" fill="#49627D"/>
  <rect x="84" y="486" width="472" height="630" rx="28" fill="#10284D"/>
  <g fill="#173562">
    <rect x="110" y="520" width="420" height="122" rx="20"/>
    <rect x="110" y="668" width="420" height="122" rx="20"/>
    <rect x="110" y="816" width="420" height="122" rx="20"/>
    <rect x="110" y="964" width="420" height="122" rx="20"/>
  </g>
  <g font-family="Montserrat, Arial, sans-serif">
    <text x="136" y="592" fill="#FFFFFF" font-size="28" font-weight="700">Fresh weakness</text>
    <text x="136" y="628" fill="#B5C3D8" font-size="20">See creatures weak to fresh damage</text>
    <text x="136" y="740" fill="#FFFFFF" font-size="28" font-weight="700">Poison resistance</text>
    <text x="136" y="776" fill="#B5C3D8" font-size="20">Filter combat effects and traits</text>
    <text x="136" y="888" fill="#FFFFFF" font-size="28" font-weight="700">Tier sorting</text>
    <text x="136" y="924" fill="#B5C3D8" font-size="20">Compare early and late game threats</text>
    <text x="136" y="1036" fill="#FFFFFF" font-size="28" font-weight="700">Regular updates</text>
    <text x="136" y="1072" fill="#B5C3D8" font-size="20">Prepared to evolve with Grounded 2</text>
  </g>
</svg>
